<svg id="圖層_1" data-name="圖層 1" xmlns="http://www.w3.org/2000/svg" viewBox="0 0 411.03 396.51"><defs><style>.cls-1{fill:#fff175;}.cls-2{fill:#e1c700;}.cls-3{fill:#f7eb00;}.cls-4{fill:#fffa99;}.cls-5{fill:#fbb600;}</style></defs><title>yy</title><path class="cls-1" d="M175.12,398.91a67.23,67.23,0,0,1,4.59-26.63c8.33-22,33.15-101-5.27-180.94-31.69-65.91.95-126.76,23.33-157.31a197.56,197.56,0,0,0-116.91,76.4C16.18,198.82,35.39,322.9,123.78,387.58a197.91,197.91,0,0,0,55.61,28.5,39.79,39.79,0,0,1-4.27-17.17" transform="translate(-35.38 -29.27)"/><path class="cls-2" d="M304.31,366.36c-4.14-32.06,1.2-64.62,14.07-94.27,10.4-24,23.22-58.77,28-93.67,5.48-40,34.12-59.67,54.1-68.68A198.46,198.46,0,0,0,197.77,34c-22.38,30.55-55,91.4-23.33,157.31,38.42,79.91,13.6,159,5.27,180.94a67.23,67.23,0,0,0-4.59,26.63,39.79,39.79,0,0,0,4.27,17.17,198.8,198.8,0,0,0,144.18-8.41,122.93,122.93,0,0,1-13.49-19.38c-2.8-5.13-4.62-13-5.77-21.93" transform="translate(-35.38 -29.27)"/><path class="cls-1" d="M400.48,109.74c-20,9-48.62,28.68-54.1,68.68-4.78,34.9-17.6,69.7-28,93.67-12.87,29.65-18.21,62.21-14.07,94.27,1.15,8.93,3,16.8,5.77,21.93a122.93,122.93,0,0,0,13.49,19.38,198.12,198.12,0,0,0,76.91-297.93" transform="translate(-35.38 -29.27)"/><path class="cls-3" d="M336.06,144.59a89.4,89.4,0,1,1-89.4-89.4,89.39,89.39,0,0,1,89.4,89.4" transform="translate(-35.38 -29.27)"/><path class="cls-4" d="M446.41,315.51a84.35,84.35,0,1,1-84.35-84.35,84.36,84.36,0,0,1,84.35,84.35" transform="translate(-35.38 -29.27)"/><path class="cls-5" d="M204.07,315.51a84.35,84.35,0,1,1-84.35-84.35,84.35,84.35,0,0,1,84.35,84.35" transform="translate(-35.38 -29.27)"/></svg>